<?xml version="1.0" standalone="no"?>
<!DOCTYPE svg PUBLIC "-//W3C//DTD SVG 20010904//EN"
 "http://www.w3.org/TR/2001/REC-SVG-20010904/DTD/svg10.dtd">
<svg version="1.0" xmlns="http://www.w3.org/2000/svg"
 width="1024.000000pt" height="1024.000000pt" viewBox="0 0 1024.000000 1024.000000"
 preserveAspectRatio="xMidYMid meet">
<metadata>
Created by potrace 1.14, written by Peter Selinger 2001-2017
</metadata>
<g transform="translate(0.000000,1024.000000) scale(0.100000,-0.100000)"
fill="#000000" stroke="none">
<path d="M1615 8868 c-265 -34 -493 -233 -567 -496 l-21 -77 -2 -3320 c0
-1826 3 -3344 7 -3374 36 -231 195 -432 414 -524 132 -56 -89 -53 3692 -51
1923 0 3506 4 3518 7 168 45 256 92 355 189 80 78 152 198 179 298 7 25 15 54
17 65 3 11 7 1516 7 3345 2 3465 3 3374 -37 3490 -38 113 -132 239 -232 316
-78 60 -184 106 -295 130 -46 10 -6957 11 -7035 2z m6306 -681 c317 -25 594
-312 608 -629 8 -160 3 -4870 -4 -4923 -10 -73 -7 -59 -30 -125 -18 -55 -51
-119 -88 -175 -33 -50 -143 -151 -204 -188 -58 -36 -178 -80 -243 -91 -65 -11
-5632 -7 -5690 4 -281 53 -491 258 -550 539 -11 52 -13 505 -13 2510 0 1345 3
2469 7 2496 29 218 185 430 381 520 120 55 144 58 420 64 320 7 5314 5 5406
-2z"/>
<path d="M2557 6823 l-297 -298 787 -787 788 -788 -788 -788 -787 -788 294
-294 c162 -162 299 -296 305 -298 7 -2 500 485 1097 1082 l1086 1086 -1085
1085 c-597 597 -1089 1085 -1094 1085 -5 0 -143 -134 -306 -297z"/>
<path d="M5292 3243 l3 -428 1275 0 1275 0 3 428 2 427 -1280 0 -1280 0 2
-427z"/>
</g>
</svg>
